# xmcd
#
# Track frame offsets: 
#        150
#        17102
#        35119
#        52963
#        70562
#        89445
#        110836
#        125592
#        143984
#        161250
#        179766
#        197859
#        218789
#
# Disc length: 3194 seconds
#
# Revision: 0
# Processed by: cddbd v1.5.2PL0 Copyright (c) Steve Scherf et al.
# Submitted via: ExactAudioCopyFreeDBPlugin 1.0
#
DISCID=c20c780d
DTITLE=何欣穗（ciacia） - 英文歌 A Better World
DYEAR=2011
DGENRE=
TTITLE0=鄭宜農 - A Better World（更好的世界）
TTITLE1=去海邊
TTITLE2=雅瓦伊（Yawai Mawlin） - tminun（編織）
TTITLE3=赤大梅 - 蘋果
TTITLE4=米莎 - 柚仔花
TTITLE5=杜能說（Pr. Toumesol） - 相信自己
TTITLE6=小茵 - 回家的路
TTITLE7=夏樂比 - 小手
TTITLE8=王山山 - 厝內的春光
TTITLE9=英文歌 （5, 4, 3, 2, 1）
TTITLE10=史嘉莉 - Now I'm 27
TTITLE11=一定春＆積木人＆Jun＆雅瓦伊（Yawai Mawlin）＆小芬 - 風中的小米田
TTITLE12=A Better World（Love and Peace Remix）
EXTD=
EXTT0=
EXTT1=
EXTT2=
EXTT3=
EXTT4=
EXTT5=
EXTT6=
EXTT7=
EXTT8=
EXTT9=
EXTT10=
EXTT11=
EXTT12=
PLAYORDER=
